# xmcd CD database file
#
# Track frame offsets:
#	150
#	27146
#	55646
#	79448
#	114228
#
# Disc length: 2031 seconds
#
# Revision: 0
# Processed by: cddbd v1.5.2PL0 Copyright (c) Steve Scherf et al.
# Submitted via: CDex 1.70beta2
#
DISCID=3207ed05
DTITLE=Hubert Laws - Say It With Silence
DYEAR=1900
DGENRE=Jazz
TTITLE0=Baron
TTITLE1=False Faces
TTITLE2=Love Gets Better
TTITLE3=It Happens Everyday
TTITLE4=Say It With Silence
EXTD=
EXTT0=
EXTT1=
EXTT2=
EXTT3=
EXTT4=
PLAYORDER=
